<svg width="99" height="113" viewBox="0 0 99 113" fill="none" xmlns="http://www.w3.org/2000/svg">
<path d="M64.4092 23.3857L78.3509 49.706C78.3509 49.706 76.548 51.5982 74.2645 51.798C74.2645 51.798 71.5004 50.9115 70.1781 47.5465C70.1781 47.5465 65.4907 48.6281 62.847 44.9019C62.847 44.9019 64.5296 49.1077 69.9383 49.2281L73.6635 53.3145C73.6635 53.3145 78.8315 51.8727 80.0334 50.0096C80.0334 50.0069 66.8131 22.7847 64.4092 23.3857Z" fill="white"/>
<path d="M73.4182 63.3404L68.2557 51.798L71.9245 62.5488C72.069 62.9725 72.2975 63.3628 72.5963 63.6962C72.8951 64.0297 73.2581 64.2994 73.6635 64.4894C73.6638 64.0934 73.5802 63.7017 73.4182 63.3404Z" fill="white"/>
<path d="M59.4401 29.2184L33.614 64.5887C33.4911 64.7572 33.4369 64.9662 33.4625 65.1732C33.4881 65.3801 33.5915 65.5696 33.7517 65.7031C34.021 65.9275 34.3325 66.0956 34.6679 66.1974C35.0032 66.2993 35.3556 66.3327 35.7042 66.2959L56.0404 64.1483C56.3472 64.1157 56.6436 64.018 56.9096 63.8617C57.1757 63.7054 57.4053 63.4942 57.5832 63.242C57.761 62.9898 57.883 62.7026 57.9409 62.3995C57.9988 62.0964 57.9913 61.7845 57.919 61.4845L38.4491 62.6864L62.8471 28.4332C62.2796 28.1329 61.623 28.047 60.9973 28.1912C60.3717 28.3354 59.8189 28.7 59.4401 29.2184Z" fill="white"/>
<path d="M51.7898 68.4153C51.7898 68.4153 63.3285 72.0812 66.5759 66.4008C67.683 64.4648 67.4249 62.0463 66.0452 60.2908C65.2536 59.2877 64.0079 58.125 62.0555 57.0352C56.0075 53.661 53.8261 48.0982 59.0461 41.3079C60.9611 38.8174 64.38 37.9748 67.1933 39.3756L67.4113 39.4877L65.6075 38.3405L67.4113 37.6447C67.4113 37.6447 60.1988 34.4402 56.1124 44.2955C52.5859 52.8129 59.9407 57.2605 62.0117 58.3128C62.859 58.7378 63.6457 59.2742 64.3508 59.9078C65.9157 61.3304 67.5718 63.717 65.1588 66.2585C63.9925 67.4662 62.439 68.2257 60.7696 68.4043C58.3858 68.677 54.169 69.0244 51.7898 68.4153Z" fill="white"/>
<path d="M71.6396 43.9087C72.306 43.5615 72.6474 42.8984 72.4021 42.4276C72.1568 41.9568 71.4178 41.8566 70.7513 42.2038C70.0849 42.551 69.7435 43.2142 69.9888 43.6849C70.2341 44.1557 70.9732 44.2559 71.6396 43.9087Z" fill="white"/>
<path d="M51.7898 72.9822C51.7898 72.9822 68.5594 75.7043 69.0965 65.2946C69.0965 65.2946 69.3145 60.5379 67.1733 57.5486C67.1733 57.5486 70.2738 60.1212 70.2884 64.99C70.3103 70.4926 65.9695 73.823 60.4723 74.1404C58.1661 74.2689 55.3026 73.9926 51.7898 72.9822Z" fill="white"/>
<path d="M65.6513 56.3969C65.6513 56.3969 53.3119 52.3907 60.2025 44.2982L60.4541 44.7597C60.4541 44.7597 56.0221 50.4538 62.4367 54.4599L65.6513 56.3969Z" fill="white"/>
<path d="M32.125 74.084C32.3333 74.084 32.5449 74.403 32.7598 75.041C32.9746 75.679 33.082 76.3398 33.082 77.0234C33.082 78.5404 32.7435 80.2233 32.0664 82.0723C31.3958 83.9147 30.5332 85.4023 29.4785 86.5352C28.4303 87.6615 27.3398 88.2246 26.207 88.2246C25.2891 88.2246 24.5404 87.8991 23.9609 87.248C23.388 86.597 23.1016 85.7474 23.1016 84.6992C23.1016 83.7161 23.4564 82.2839 24.166 80.4023C24.8171 78.612 25.1426 77.3327 25.1426 76.5645C25.1426 76.0566 25.0449 75.6628 24.8496 75.3828C24.6543 75.1029 24.3841 74.9629 24.0391 74.9629C23.5052 74.9629 23.0007 75.2624 22.5254 75.8613C22.0566 76.4538 21.8223 77.0918 21.8223 77.7754C21.8223 78.3288 21.9655 78.7422 22.252 79.0156C22.5384 79.2826 22.6816 79.4844 22.6816 79.6211C22.6816 79.8555 22.5384 80.1289 22.252 80.4414C21.972 80.7474 21.7214 80.9004 21.5 80.9004C21.2266 80.9004 20.9727 80.7148 20.7383 80.3438C20.5039 79.9661 20.3867 79.5462 20.3867 79.084C20.3867 77.8991 20.8099 76.7663 21.6562 75.6855C22.5091 74.6048 23.5052 74.0645 24.6445 74.0645C25.5169 74.0645 26.2135 74.3932 26.7344 75.0508C27.2617 75.7018 27.5254 76.5775 27.5254 77.6777C27.5254 78.1855 27.4603 78.7585 27.3301 79.3965C27.1999 80.0345 26.8809 81.0371 26.373 82.4043C25.8717 83.765 25.6211 84.7969 25.6211 85.5C25.6211 85.9622 25.7546 86.3464 26.0215 86.6523C26.2949 86.9518 26.6367 87.1016 27.0469 87.1016C27.6719 87.1016 28.3262 86.7305 29.0098 85.9883C29.6934 85.2396 30.2598 84.2728 30.709 83.0879C31.1582 81.8965 31.3828 80.7474 31.3828 79.6406C31.3828 78.5924 31.0638 77.4596 30.4258 76.2422C30.224 75.8776 30.123 75.6237 30.123 75.4805C30.123 75.2331 30.4062 74.9401 30.9727 74.6016C31.5456 74.2565 31.9297 74.084 32.125 74.084ZM43.0234 85.8418C41.9818 86.8314 41.2363 87.4759 40.7871 87.7754C40.3379 88.0749 39.9082 88.2246 39.498 88.2246C38.4694 88.2246 37.9844 87.3164 38.043 85.5C37.3919 86.431 36.7897 87.1178 36.2363 87.5605C35.6895 88.0033 35.123 88.2246 34.5371 88.2246C33.9642 88.2246 33.4759 87.9577 33.0723 87.4238C32.6751 86.8835 32.4766 86.2227 32.4766 85.4414C32.4766 84.4648 32.7435 83.5339 33.2773 82.6484C33.8177 81.763 34.5078 81.0469 35.3477 80.5C36.1875 79.9531 36.9297 79.6797 37.5742 79.6797C38.388 79.6797 38.9577 80.054 39.2832 80.8027L41.2754 79.6992H41.8223L40.9629 82.5605C40.5202 83.9993 40.2988 84.9857 40.2988 85.5195C40.2988 86.0794 40.4974 86.3594 40.8945 86.3594C41.1484 86.3594 41.4284 86.2259 41.7344 85.959C42.0404 85.6855 42.4701 85.2721 43.0234 84.7188V85.8418ZM35.875 86.3789C36.526 86.3789 37.138 85.8255 37.7109 84.7188C38.2904 83.6055 38.5801 82.5801 38.5801 81.6426C38.5801 81.278 38.4987 80.9948 38.3359 80.793C38.1732 80.5846 37.9551 80.4805 37.6816 80.4805C37.0306 80.4805 36.4121 81.0339 35.8262 82.1406C35.2467 83.2474 34.957 84.2663 34.957 85.1973C34.957 85.5488 35.0417 85.8353 35.2109 86.0566C35.3867 86.2715 35.6081 86.3789 35.875 86.3789ZM50.3281 85.8418C48.694 87.4434 47.4342 88.2441 46.5488 88.2441C46.1517 88.2441 45.8164 88.0781 45.543 87.7461C45.2695 87.4076 45.1328 86.9909 45.1328 86.4961C45.1328 85.5781 45.6243 84.3477 46.6074 82.8047C46.1257 83.0521 45.5983 83.2246 45.0254 83.3223C44.6022 84.1035 43.9382 84.9434 43.0332 85.8418H42.8086V84.9629C43.3164 84.4355 43.7754 83.8691 44.1855 83.2637C43.6257 83.0163 43.3457 82.6484 43.3457 82.1602C43.3457 81.6589 43.515 81.125 43.8535 80.5586C44.1986 79.9857 44.6706 79.6992 45.2695 79.6992C45.7773 79.6992 46.0312 79.9596 46.0312 80.4805C46.0312 80.8906 45.8848 81.4766 45.5918 82.2383C46.6725 82.1211 47.6165 81.2943 48.4238 79.7578L49.3125 79.7188L48.4043 82.2188C48.0267 83.2734 47.7826 83.9928 47.6719 84.377C47.5612 84.7546 47.5059 85.0898 47.5059 85.3828C47.5059 85.6562 47.5677 85.8743 47.6914 86.0371C47.8216 86.1999 47.9941 86.2812 48.209 86.2812C48.4434 86.2812 48.668 86.2031 48.8828 86.0469C49.0977 85.8841 49.5794 85.4414 50.3281 84.7188V85.8418ZM59.918 85.8418C59.0911 86.7077 58.1016 87.3457 56.9492 87.7559C56.4089 89.4421 55.722 90.7409 54.8887 91.6523C54.0618 92.5638 53.1829 93.0195 52.252 93.0195C51.7441 93.0195 51.334 92.86 51.0215 92.541C50.709 92.222 50.5527 91.8021 50.5527 91.2812C50.5527 90.5846 50.862 89.9596 51.4805 89.4062C52.1055 88.8529 53.1634 88.319 54.6543 87.8047L55.0742 85.8809C54.4492 86.584 53.9089 87.1016 53.4531 87.4336C52.9974 87.7591 52.5384 87.9219 52.0762 87.9219C51.5358 87.9219 51.0931 87.668 50.748 87.1602C50.403 86.6523 50.2305 85.9915 50.2305 85.1777C50.2305 83.8496 50.735 82.6061 51.7441 81.4473C52.7598 80.2819 53.8372 79.6992 54.9766 79.6992C55.6081 79.6992 56.168 79.9661 56.6562 80.5C56.9492 80.3958 57.3301 80.2396 57.7988 80.0312L58.4922 79.7188H58.7168C58.4629 80.487 58.2676 81.2357 58.1309 81.9648L57.2129 86.8574C58.0918 86.5254 58.9935 85.8125 59.918 84.7188V85.8418ZM53.6289 86.1641C54.0911 86.1641 54.5013 85.8906 54.8594 85.3438C55.2174 84.7969 55.4941 84.1035 55.6895 83.2637C55.8913 82.4238 55.9922 81.8411 55.9922 81.5156C55.9922 81.2096 55.9141 80.959 55.7578 80.7637C55.6081 80.5618 55.4193 80.4609 55.1914 80.4609C54.5013 80.4609 53.8991 80.9264 53.3848 81.8574C52.8704 82.7884 52.6133 83.7357 52.6133 84.6992C52.6133 85.1484 52.7044 85.5065 52.8867 85.7734C53.0755 86.0339 53.3229 86.1641 53.6289 86.1641ZM54.4492 88.6641C52.3464 89.4193 51.2949 90.2917 51.2949 91.2812C51.2949 91.5742 51.3828 91.8118 51.5586 91.9941C51.7344 92.1829 51.959 92.2773 52.2324 92.2773C52.7012 92.2773 53.1081 91.9811 53.4531 91.3887C53.7982 90.7962 54.1302 89.888 54.4492 88.6641ZM70.3477 85.8418C69.306 86.8314 68.5605 87.4759 68.1113 87.7754C67.6621 88.0749 67.2324 88.2246 66.8223 88.2246C65.7936 88.2246 65.3086 87.3164 65.3672 85.5C64.7161 86.431 64.1139 87.1178 63.5605 87.5605C63.0137 88.0033 62.4473 88.2246 61.8613 88.2246C61.2884 88.2246 60.8001 87.9577 60.3965 87.4238C59.9993 86.8835 59.8008 86.2227 59.8008 85.4414C59.8008 84.4648 60.0677 83.5339 60.6016 82.6484C61.1419 81.763 61.832 81.0469 62.6719 80.5C63.5117 79.9531 64.2539 79.6797 64.8984 79.6797C65.7122 79.6797 66.2819 80.054 66.6074 80.8027L68.5996 79.6992H69.1465L68.2871 82.5605C67.8444 83.9993 67.623 84.9857 67.623 85.5195C67.623 86.0794 67.8216 86.3594 68.2188 86.3594C68.4727 86.3594 68.7526 86.2259 69.0586 85.959C69.3646 85.6855 69.7943 85.2721 70.3477 84.7188V85.8418ZM63.1992 86.3789C63.8503 86.3789 64.4622 85.8255 65.0352 84.7188C65.6146 83.6055 65.9043 82.5801 65.9043 81.6426C65.9043 81.278 65.8229 80.9948 65.6602 80.793C65.4974 80.5846 65.2793 80.4805 65.0059 80.4805C64.3548 80.4805 63.7363 81.0339 63.1504 82.1406C62.571 83.2474 62.2812 84.2663 62.2812 85.1973C62.2812 85.5488 62.3659 85.8353 62.5352 86.0566C62.7109 86.2715 62.9323 86.3789 63.1992 86.3789ZM73.3555 80.1191C73.8047 80.002 74.2572 79.9076 74.7129 79.8359C75.1686 79.7578 75.4421 79.7188 75.5332 79.7188C75.5983 79.7188 75.6309 79.7448 75.6309 79.7969C75.6309 79.8945 75.6048 79.9954 75.5527 80.0996C75.4486 80.3991 75.3965 80.6855 75.3965 80.959C75.3965 81.2975 75.5918 81.7598 75.9824 82.3457C76.373 82.9316 76.5684 83.4753 76.5684 83.9766C76.5684 84.9727 76.0898 85.9329 75.1328 86.8574C74.1823 87.7819 73.196 88.2441 72.1738 88.2441C71.7311 88.2441 71.3275 88.127 70.9629 87.8926C70.5983 87.6582 70.416 87.4076 70.416 87.1406C70.416 86.9844 70.5951 86.6882 70.9531 86.252C71.3177 85.8158 71.5781 85.5977 71.7344 85.5977C71.9427 85.5977 72.1283 85.8646 72.291 86.3984C72.4538 86.9323 72.7337 87.1992 73.1309 87.1992C73.528 87.1992 73.8991 87.0169 74.2441 86.6523C74.5957 86.2812 74.7715 85.8841 74.7715 85.4609C74.7715 85.0508 74.5501 84.5039 74.1074 83.8203C73.6647 83.1367 73.3717 82.5638 73.2285 82.1016C72.4733 83.319 71.5163 84.5658 70.3574 85.8418H70.1328V84.9629C71.7279 83.2637 72.8021 81.6491 73.3555 80.1191ZM21.8711 109.842C20.3737 111.443 19 112.244 17.75 112.244C17.0599 112.244 16.513 112 16.1094 111.512C15.7057 111.023 15.4811 110.327 15.4355 109.422C14.6478 110.379 13.9479 111.089 13.3359 111.551C12.7305 112.013 12.0827 112.244 11.3926 112.244C10.5072 112.244 9.79427 111.863 9.25391 111.102C8.72005 110.333 8.45312 109.311 8.45312 108.035C8.45312 106.512 8.80469 104.943 9.50781 103.328C10.2109 101.707 11.2526 100.428 12.6328 99.4902C14.013 98.5527 15.6862 98.084 17.6523 98.084C19.1237 98.084 20.4551 98.2826 21.6465 98.6797V99.3242C20.6764 100.457 19.8626 102.042 19.2051 104.08C18.554 106.118 18.2285 107.671 18.2285 108.738C18.2285 109.259 18.3327 109.663 18.541 109.949C18.7559 110.236 19.0521 110.379 19.4297 110.379C20.1068 110.379 20.9206 109.826 21.8711 108.719V109.842ZM19.0293 99.3242C18.4303 98.9987 17.7858 98.8359 17.0957 98.8359C16.0085 98.8359 15.0286 99.2917 14.1562 100.203C13.2839 101.108 12.5938 102.309 12.0859 103.807C11.5846 105.304 11.334 106.603 11.334 107.703C11.334 108.439 11.474 109.038 11.7539 109.5C12.0404 109.956 12.4049 110.184 12.8477 110.184C13.6159 110.184 14.498 109.484 15.4941 108.084C15.9043 104.412 17.0827 101.492 19.0293 99.3242ZM32.291 109.842C31.3535 110.773 30.6374 111.404 30.1426 111.736C29.6543 112.062 29.2214 112.225 28.8438 112.225C28.3815 112.225 28.0137 112 27.7402 111.551C27.4733 111.102 27.3366 110.444 27.3301 109.578C26.7962 110.444 26.2135 111.102 25.582 111.551C24.957 112 24.3906 112.225 23.8828 112.225C23.3294 112.225 22.8411 111.964 22.418 111.443C21.9948 110.916 21.7832 110.301 21.7832 109.598C21.7832 108.146 22.3105 106.801 23.3652 105.564C24.4264 104.321 25.5658 103.699 26.7832 103.699C27.1217 103.699 27.3854 103.748 27.5742 103.846C27.7695 103.943 27.9811 104.109 28.209 104.344L29.6055 98.5039C30.7448 98.237 31.513 98.1035 31.9102 98.1035C32.0404 98.1035 32.1055 98.1556 32.1055 98.2598C32.1055 98.3314 31.9427 99.0052 31.6172 100.281C30.3151 105.385 29.6641 108.465 29.6641 109.52C29.6641 109.767 29.7161 109.965 29.8203 110.115C29.9245 110.265 30.0612 110.34 30.2305 110.34C30.6471 110.34 31.334 109.799 32.291 108.719V109.842ZM25.2305 110.359C25.8685 110.359 26.4642 109.819 27.0176 108.738C27.571 107.658 27.8477 106.645 27.8477 105.701C27.8477 105.317 27.7598 105.011 27.584 104.783C27.4147 104.555 27.1901 104.441 26.9102 104.441C26.3047 104.441 25.7188 105.008 25.1523 106.141C24.5859 107.267 24.3027 108.286 24.3027 109.197C24.3027 109.555 24.3841 109.839 24.5469 110.047C24.7161 110.255 24.944 110.359 25.2305 110.359ZM41.0605 109.842C40.7611 110.102 40.4583 110.288 40.1523 110.398C39.8464 110.509 39.6087 110.564 39.4395 110.564C38.9642 110.564 38.4954 110.382 38.0332 110.018C36.8743 111.489 35.6471 112.225 34.3516 112.225C33.6745 112.225 33.1439 111.993 32.7598 111.531C32.3822 111.062 32.1934 110.411 32.1934 109.578C32.1934 108.66 32.4212 107.534 32.877 106.199L33.5605 104.197L36.2168 103.699L35.0352 107.225C34.9115 107.609 34.7943 108.064 34.6836 108.592C34.5729 109.119 34.5176 109.497 34.5176 109.725C34.5176 110.076 34.6087 110.372 34.791 110.613C34.9798 110.848 35.2077 110.965 35.4746 110.965C36.0996 110.965 36.7734 110.431 37.4961 109.363C37.1641 108.699 36.998 108.032 36.998 107.361C36.998 106.43 37.2422 105.59 37.7305 104.842C38.2253 104.093 38.7656 103.719 39.3516 103.719C39.7943 103.719 40.0156 104.061 40.0156 104.744C40.0156 106.066 39.4818 107.592 38.4141 109.324C38.7461 109.63 39.0944 109.783 39.459 109.783C39.9017 109.783 40.4355 109.428 41.0605 108.719V109.842ZM49.8301 109.842C49.498 110.135 49.1758 110.343 48.8633 110.467C48.5508 110.584 48.3034 110.643 48.1211 110.643C47.6523 110.643 47.1868 110.46 46.7246 110.096C45.7871 111.515 44.7129 112.225 43.502 112.225C42.7467 112.225 42.1348 111.941 41.666 111.375C41.1973 110.809 40.9629 110.057 40.9629 109.119C40.9629 107.635 41.4902 106.362 42.5449 105.301C43.5996 104.233 44.8594 103.699 46.3242 103.699C46.8776 103.699 47.2812 103.761 47.5352 103.885C47.7956 104.002 47.9551 104.142 48.0137 104.305C48.0723 104.467 48.1016 104.673 48.1016 104.92C48.1016 106.137 47.7695 107.632 47.1055 109.402C47.4375 109.708 47.7858 109.861 48.1504 109.861C48.5866 109.861 49.1465 109.48 49.8301 108.719V109.842ZM46.6074 104.383C46.5098 104.344 46.3698 104.324 46.1875 104.324C45.3411 104.324 44.6771 104.767 44.1953 105.652C43.7201 106.538 43.4824 107.573 43.4824 108.758C43.4824 109.415 43.5866 109.926 43.7949 110.291C44.0033 110.656 44.293 110.838 44.6641 110.838C45.1263 110.838 45.6276 110.411 46.168 109.559C45.556 108.79 45.25 107.964 45.25 107.078C45.25 106.036 45.7025 105.138 46.6074 104.383ZM57.1348 109.842C56.3014 110.662 55.5365 111.264 54.8398 111.648C54.1497 112.033 53.4271 112.225 52.6719 112.225C51.8255 112.225 51.1257 111.951 50.5723 111.404C50.0254 110.851 49.752 110.151 49.752 109.305C49.752 107.918 50.2565 106.639 51.2656 105.467C52.2812 104.288 53.3783 103.699 54.5566 103.699C55.1361 103.699 55.6081 103.862 55.9727 104.188C56.3372 104.507 56.5195 104.923 56.5195 105.438C56.5195 105.62 56.4837 105.757 56.4121 105.848C56.347 105.939 56.2201 106.03 56.0312 106.121L54.8984 106.658C54.7617 106.723 54.6608 106.756 54.5957 106.756C54.5046 106.756 54.459 106.691 54.459 106.561C54.459 106.508 54.4785 106.339 54.5176 106.053C54.5566 105.76 54.5762 105.581 54.5762 105.516C54.5762 105.229 54.5143 104.998 54.3906 104.822C54.2734 104.646 54.1139 104.559 53.9121 104.559C53.4368 104.559 53.0007 104.91 52.6035 105.613C52.2129 106.316 52.0176 107.117 52.0176 108.016C52.0176 108.79 52.2031 109.409 52.5742 109.871C52.9453 110.333 53.4401 110.564 54.0586 110.564C54.5859 110.564 55.0807 110.415 55.543 110.115C56.0117 109.809 56.5423 109.344 57.1348 108.719V109.842ZM67.5645 109.842C66.5228 110.831 65.7773 111.476 65.3281 111.775C64.8789 112.075 64.4492 112.225 64.0391 112.225C63.0104 112.225 62.5254 111.316 62.584 109.5C61.9329 110.431 61.3307 111.118 60.7773 111.561C60.2305 112.003 59.6641 112.225 59.0781 112.225C58.5052 112.225 58.0169 111.958 57.6133 111.424C57.2161 110.883 57.0176 110.223 57.0176 109.441C57.0176 108.465 57.2845 107.534 57.8184 106.648C58.3587 105.763 59.0488 105.047 59.8887 104.5C60.7285 103.953 61.4707 103.68 62.1152 103.68C62.929 103.68 63.4987 104.054 63.8242 104.803L65.8164 103.699H66.3633L65.5039 106.561C65.0612 107.999 64.8398 108.986 64.8398 109.52C64.8398 110.079 65.0384 110.359 65.4355 110.359C65.6895 110.359 65.9694 110.226 66.2754 109.959C66.5814 109.686 67.0111 109.272 67.5645 108.719V109.842ZM60.416 110.379C61.0671 110.379 61.679 109.826 62.252 108.719C62.8314 107.605 63.1211 106.58 63.1211 105.643C63.1211 105.278 63.0397 104.995 62.877 104.793C62.7142 104.585 62.4961 104.48 62.2227 104.48C61.5716 104.48 60.9531 105.034 60.3672 106.141C59.7878 107.247 59.498 108.266 59.498 109.197C59.498 109.549 59.5827 109.835 59.752 110.057C59.9277 110.271 60.1491 110.379 60.416 110.379ZM74.8691 109.842C74.0358 110.662 73.2708 111.264 72.5742 111.648C71.8841 112.033 71.1615 112.225 70.4062 112.225C69.5599 112.225 68.86 111.951 68.3066 111.404C67.7598 110.851 67.4863 110.151 67.4863 109.305C67.4863 107.918 67.9909 106.639 69 105.467C70.0156 104.288 71.1126 103.699 72.291 103.699C72.8704 103.699 73.3424 103.862 73.707 104.188C74.0716 104.507 74.2539 104.923 74.2539 105.438C74.2539 105.62 74.2181 105.757 74.1465 105.848C74.0814 105.939 73.9544 106.03 73.7656 106.121L72.6328 106.658C72.4961 106.723 72.3952 106.756 72.3301 106.756C72.2389 106.756 72.1934 106.691 72.1934 106.561C72.1934 106.508 72.2129 106.339 72.252 106.053C72.291 105.76 72.3105 105.581 72.3105 105.516C72.3105 105.229 72.2487 104.998 72.125 104.822C72.0078 104.646 71.8483 104.559 71.6465 104.559C71.1712 104.559 70.735 104.91 70.3379 105.613C69.9473 106.316 69.752 107.117 69.752 108.016C69.752 108.79 69.9375 109.409 70.3086 109.871C70.6797 110.333 71.1745 110.564 71.793 110.564C72.3203 110.564 72.8151 110.415 73.2773 110.115C73.7461 109.809 74.2767 109.344 74.8691 108.719V109.842ZM79.4785 99.9004C79.4785 101.463 78.9023 102.244 77.75 102.244C77.1901 102.244 76.7116 102.075 76.3145 101.736C76.6921 101.163 76.985 100.519 77.1934 99.8027C77.7077 100.122 78.1211 100.281 78.4336 100.281C78.7852 100.281 79.1335 100.154 79.4785 99.9004ZM79.6738 109.842C78.1504 111.443 77.0111 112.244 76.2559 112.244C75.8392 112.244 75.4876 112.033 75.2012 111.609C74.9147 111.18 74.7715 110.643 74.7715 109.998C74.7715 108.611 75.2402 106.691 76.1777 104.236L78.6582 103.719H78.7754L77.7988 106.775C77.3952 108.038 77.1934 108.94 77.1934 109.48C77.1934 109.695 77.2389 109.871 77.3301 110.008C77.4277 110.138 77.5482 110.203 77.6914 110.203C77.9453 110.203 78.1992 110.112 78.4531 109.93C78.7135 109.741 79.1204 109.337 79.6738 108.719V109.842ZM90.1035 109.842C89.0618 110.831 88.3164 111.476 87.8672 111.775C87.418 112.075 86.9883 112.225 86.5781 112.225C85.5495 112.225 85.0645 111.316 85.123 109.5C84.472 110.431 83.8698 111.118 83.3164 111.561C82.7695 112.003 82.2031 112.225 81.6172 112.225C81.0443 112.225 80.556 111.958 80.1523 111.424C79.7552 110.883 79.5566 110.223 79.5566 109.441C79.5566 108.465 79.8236 107.534 80.3574 106.648C80.8978 105.763 81.5879 105.047 82.4277 104.5C83.2676 103.953 84.0098 103.68 84.6543 103.68C85.4681 103.68 86.0378 104.054 86.3633 104.803L88.3555 103.699H88.9023L88.043 106.561C87.6003 107.999 87.3789 108.986 87.3789 109.52C87.3789 110.079 87.5775 110.359 87.9746 110.359C88.2285 110.359 88.5085 110.226 88.8145 109.959C89.1204 109.686 89.5501 109.272 90.1035 108.719V109.842ZM82.9551 110.379C83.6061 110.379 84.2181 109.826 84.791 108.719C85.3704 107.605 85.6602 106.58 85.6602 105.643C85.6602 105.278 85.5788 104.995 85.416 104.793C85.2533 104.585 85.0352 104.48 84.7617 104.48C84.1107 104.48 83.4922 105.034 82.9062 106.141C82.3268 107.247 82.0371 108.266 82.0371 109.197C82.0371 109.549 82.1217 109.835 82.291 110.057C82.4668 110.271 82.6882 110.379 82.9551 110.379Z" fill="white"/>
</svg>
