<svg width="99" height="99" viewBox="0 0 99 99" fill="none" xmlns="http://www.w3.org/2000/svg">
<path d="M64.4092 23.3857L78.3509 49.706C78.3509 49.706 76.548 51.5982 74.2645 51.798C74.2645 51.798 71.5004 50.9115 70.1781 47.5465C70.1781 47.5465 65.4907 48.6281 62.847 44.9019C62.847 44.9019 64.5296 49.1077 69.9383 49.2281L73.6635 53.3145C73.6635 53.3145 78.8315 51.8727 80.0334 50.0096C80.0334 50.0069 66.8131 22.7847 64.4092 23.3857Z" fill="white"/>
<path d="M73.4182 63.3404L68.2557 51.798L71.9245 62.5488C72.069 62.9725 72.2975 63.3628 72.5963 63.6962C72.8951 64.0297 73.2581 64.2994 73.6635 64.4894V64.4894C73.6638 64.0934 73.5802 63.7017 73.4182 63.3404V63.3404Z" fill="white"/>
<path d="M59.4401 29.2184L33.614 64.5887C33.4911 64.7572 33.4369 64.9662 33.4625 65.1732C33.4881 65.3801 33.5915 65.5696 33.7517 65.7031C34.021 65.9275 34.3325 66.0956 34.6679 66.1974C35.0032 66.2993 35.3556 66.3327 35.7042 66.2959L56.0404 64.1483C56.3472 64.1157 56.6436 64.018 56.9096 63.8617C57.1757 63.7054 57.4053 63.4942 57.5832 63.242C57.761 62.9898 57.883 62.7026 57.9409 62.3995C57.9988 62.0964 57.9913 61.7845 57.919 61.4845V61.4845L38.4491 62.6864L62.8471 28.4332C62.2796 28.1329 61.623 28.047 60.9973 28.1912C60.3717 28.3354 59.8189 28.7 59.4401 29.2184V29.2184Z" fill="white"/>
<path d="M51.7898 68.4153C51.7898 68.4153 63.3285 72.0812 66.5759 66.4008C67.683 64.4648 67.4249 62.0463 66.0452 60.2908C65.2536 59.2877 64.0079 58.125 62.0555 57.0352C56.0075 53.661 53.8261 48.0982 59.0461 41.3079C60.9611 38.8174 64.38 37.9748 67.1933 39.3756L67.4113 39.4877L65.6075 38.3405L67.4113 37.6447C67.4113 37.6447 60.1988 34.4402 56.1124 44.2955C52.5859 52.8129 59.9407 57.2605 62.0117 58.3128C62.859 58.7378 63.6457 59.2742 64.3508 59.9078C65.9157 61.3304 67.5718 63.717 65.1588 66.2585C63.9925 67.4662 62.439 68.2257 60.7696 68.4043C58.3858 68.677 54.169 69.0244 51.7898 68.4153Z" fill="white"/>
<path d="M71.6396 43.9087C72.306 43.5615 72.6474 42.8984 72.4021 42.4276C72.1568 41.9568 71.4178 41.8566 70.7513 42.2038C70.0849 42.551 69.7435 43.2142 69.9888 43.6849C70.2341 44.1557 70.9732 44.2559 71.6396 43.9087Z" fill="white"/>
<path d="M51.7898 72.9822C51.7898 72.9822 68.5594 75.7043 69.0965 65.2946C69.0965 65.2946 69.3145 60.5379 67.1733 57.5486C67.1733 57.5486 70.2738 60.1212 70.2884 64.99C70.3103 70.4926 65.9695 73.823 60.4723 74.1404C58.1661 74.2689 55.3026 73.9926 51.7898 72.9822Z" fill="white"/>
<path d="M65.6513 56.3969C65.6513 56.3969 53.3119 52.3907 60.2025 44.2982L60.4541 44.7597C60.4541 44.7597 56.0221 50.4538 62.4367 54.4599L65.6513 56.3969Z" fill="white"/>
</svg>
