<svg width="435" height="261" viewBox="0 0 435 261" fill="none" xmlns="http://www.w3.org/2000/svg">
<path d="M167.884 33.7584L210.067 113.396C210.067 113.396 204.612 119.122 197.703 119.726C197.703 119.726 189.34 117.044 185.339 106.862C185.339 106.862 171.156 110.135 163.157 98.8604C163.157 98.8604 168.248 111.586 184.613 111.95L195.885 124.315C195.885 124.315 211.521 119.952 215.158 114.315C215.158 114.307 175.157 31.9401 167.884 33.7584Z" fill="white"/>
<path d="M195.142 154.65L179.522 119.726L190.623 152.255C191.06 153.537 191.752 154.718 192.656 155.727C193.56 156.736 194.658 157.552 195.885 158.126V158.126C195.886 156.928 195.633 155.743 195.142 154.65V154.65Z" fill="white"/>
<path d="M152.849 51.4066L74.7063 158.427C74.3343 158.937 74.1704 159.569 74.2478 160.196C74.3252 160.822 74.6381 161.395 75.1229 161.799C75.9375 162.478 76.8801 162.987 77.8949 163.295C78.9097 163.603 79.9759 163.704 81.0305 163.593L142.562 157.095C143.49 156.996 144.387 156.7 145.192 156.228C145.997 155.755 146.692 155.115 147.23 154.352C147.768 153.589 148.137 152.72 148.312 151.803C148.488 150.886 148.465 149.942 148.246 149.035V149.035L89.3359 152.671L163.157 49.0309C161.44 48.1224 159.453 47.8624 157.56 48.2987C155.667 48.7349 153.995 49.8382 152.849 51.4066V51.4066Z" fill="white"/>
<path d="M129.701 170.005C129.701 170.005 164.614 181.097 174.44 163.91C177.789 158.052 177.009 150.734 172.834 145.423C170.439 142.388 166.67 138.87 160.762 135.572C142.463 125.363 135.863 108.532 151.657 87.9862C157.451 80.4506 167.795 77.9011 176.308 82.1393L176.967 82.4787L171.509 79.0075L176.967 76.9022C176.967 76.9022 155.144 67.2062 142.78 97.0255C132.11 122.797 154.363 136.254 160.63 139.438C163.193 140.724 165.574 142.347 167.707 144.264C172.442 148.568 177.453 155.789 170.152 163.479C166.623 167.134 161.923 169.432 156.872 169.972C149.659 170.797 136.9 171.848 129.701 170.005Z" fill="white"/>
<path d="M189.761 95.8553C191.777 94.8047 192.81 92.7983 192.068 91.3739C191.326 89.9494 189.09 89.6463 187.073 90.6969C185.057 91.7475 184.024 93.7539 184.766 95.1783C185.508 96.6028 187.744 96.9058 189.761 95.8553Z" fill="white"/>
<path d="M129.701 183.823C129.701 183.823 180.441 192.06 182.066 160.563C182.066 160.563 182.726 146.171 176.247 137.126C176.247 137.126 185.629 144.91 185.673 159.641C185.739 176.291 172.605 186.368 155.972 187.328C148.994 187.717 140.33 186.881 129.701 183.823Z" fill="white"/>
<path d="M171.642 133.641C171.642 133.641 134.306 121.519 155.155 97.0338L155.917 98.4299C155.917 98.4299 142.507 115.659 161.915 127.78L171.642 133.641Z" fill="white"/>
<path d="M101.957 181.569C102.478 181.569 103.007 182.366 103.544 183.961C104.081 185.556 104.35 187.208 104.35 188.917C104.35 192.709 103.503 196.917 101.811 201.539C100.134 206.145 97.9775 209.864 95.3408 212.696C92.7204 215.512 89.9941 216.92 87.1621 216.92C84.8672 216.92 82.9954 216.106 81.5469 214.479C80.1146 212.851 79.3984 210.727 79.3984 208.107C79.3984 205.649 80.2855 202.068 82.0596 197.364C83.6872 192.889 84.501 189.69 84.501 187.77C84.501 186.5 84.2568 185.515 83.7686 184.816C83.2803 184.116 82.6048 183.766 81.7422 183.766C80.4076 183.766 79.1462 184.515 77.958 186.012C76.7861 187.493 76.2002 189.088 76.2002 190.797C76.2002 192.181 76.5583 193.214 77.2744 193.898C77.9906 194.565 78.3486 195.07 78.3486 195.411C78.3486 195.997 77.9906 196.681 77.2744 197.462C76.5745 198.227 75.9479 198.61 75.3945 198.61C74.7109 198.61 74.0762 198.146 73.4902 197.218C72.9043 196.274 72.6113 195.224 72.6113 194.069C72.6113 191.106 73.6693 188.274 75.7852 185.572C77.9173 182.871 80.4076 181.52 83.2559 181.52C85.4368 181.52 87.1784 182.342 88.4805 183.986C89.7988 185.613 90.458 187.802 90.458 190.553C90.458 191.822 90.2952 193.255 89.9697 194.85C89.6442 196.445 88.8467 198.951 87.5771 202.369C86.3239 205.771 85.6973 208.351 85.6973 210.109C85.6973 211.264 86.0309 212.224 86.6982 212.989C87.3818 213.738 88.2363 214.112 89.2617 214.112C90.8242 214.112 92.46 213.185 94.1689 211.329C95.8779 209.458 97.2939 207.041 98.417 204.078C99.54 201.1 100.102 198.227 100.102 195.46C100.102 192.84 99.304 190.008 97.709 186.964C97.2044 186.053 96.9521 185.418 96.9521 185.06C96.9521 184.441 97.6602 183.709 99.0762 182.862C100.508 182 101.469 181.569 101.957 181.569ZM129.203 210.963C126.599 213.437 124.735 215.048 123.612 215.797C122.489 216.546 121.415 216.92 120.39 216.92C117.818 216.92 116.605 214.65 116.752 210.109C115.124 212.436 113.619 214.153 112.235 215.26C110.868 216.367 109.452 216.92 107.987 216.92C106.555 216.92 105.334 216.253 104.325 214.918C103.332 213.567 102.836 211.915 102.836 209.962C102.836 207.521 103.503 205.193 104.838 202.98C106.189 200.766 107.914 198.976 110.014 197.609C112.113 196.241 113.969 195.558 115.58 195.558C117.615 195.558 119.039 196.494 119.853 198.365L124.833 195.607H126.2L124.052 202.76C122.945 206.357 122.392 208.823 122.392 210.157C122.392 211.557 122.888 212.257 123.881 212.257C124.516 212.257 125.215 211.923 125.98 211.256C126.745 210.572 127.82 209.539 129.203 208.155V210.963ZM111.332 212.306C112.96 212.306 114.49 210.922 115.922 208.155C117.37 205.372 118.095 202.809 118.095 200.465C118.095 199.554 117.891 198.846 117.484 198.341C117.077 197.82 116.532 197.56 115.849 197.56C114.221 197.56 112.675 198.943 111.21 201.71C109.761 204.477 109.037 207.024 109.037 209.352C109.037 210.231 109.249 210.947 109.672 211.5C110.111 212.037 110.665 212.306 111.332 212.306ZM147.465 210.963C143.38 214.967 140.23 216.969 138.017 216.969C137.024 216.969 136.186 216.554 135.502 215.724C134.818 214.877 134.477 213.836 134.477 212.599C134.477 210.304 135.705 207.228 138.163 203.37C136.959 203.989 135.64 204.42 134.208 204.664C133.15 206.617 131.49 208.717 129.228 210.963H128.666V208.766C129.936 207.447 131.083 206.031 132.108 204.518C130.709 203.899 130.009 202.98 130.009 201.759C130.009 200.506 130.432 199.171 131.278 197.755C132.141 196.323 133.321 195.607 134.818 195.607C136.088 195.607 136.723 196.258 136.723 197.56C136.723 198.585 136.356 200.05 135.624 201.954C138.326 201.661 140.686 199.594 142.704 195.753L144.926 195.655L142.655 201.905C141.711 204.542 141.101 206.341 140.824 207.301C140.548 208.245 140.409 209.083 140.409 209.816C140.409 210.499 140.564 211.044 140.873 211.451C141.199 211.858 141.63 212.062 142.167 212.062C142.753 212.062 143.314 211.866 143.852 211.476C144.389 211.069 145.593 209.962 147.465 208.155V210.963ZM171.439 210.963C169.372 213.128 166.898 214.723 164.018 215.748C162.667 219.964 160.95 223.211 158.866 225.489C156.799 227.768 154.602 228.907 152.274 228.907C151.005 228.907 149.979 228.509 149.198 227.711C148.417 226.914 148.026 225.864 148.026 224.562C148.026 222.82 148.799 221.258 150.346 219.874C151.908 218.491 154.553 217.156 158.28 215.87L159.33 211.061C157.768 212.819 156.417 214.112 155.277 214.943C154.138 215.756 152.991 216.163 151.835 216.163C150.484 216.163 149.377 215.529 148.515 214.259C147.652 212.989 147.221 211.337 147.221 209.303C147.221 205.983 148.482 202.874 151.005 199.977C153.544 197.063 156.238 195.607 159.086 195.607C160.665 195.607 162.064 196.274 163.285 197.609C164.018 197.348 164.97 196.958 166.142 196.437L167.875 195.655H168.437C167.802 197.576 167.313 199.448 166.972 201.271L164.677 213.502C166.874 212.672 169.128 210.89 171.439 208.155V210.963ZM155.717 211.769C156.872 211.769 157.898 211.085 158.793 209.718C159.688 208.351 160.38 206.617 160.868 204.518C161.373 202.418 161.625 200.961 161.625 200.148C161.625 199.383 161.43 198.756 161.039 198.268C160.665 197.763 160.193 197.511 159.623 197.511C157.898 197.511 156.392 198.675 155.106 201.002C153.821 203.33 153.178 205.698 153.178 208.107C153.178 209.23 153.406 210.125 153.861 210.792C154.333 211.443 154.952 211.769 155.717 211.769ZM157.768 218.019C152.51 219.907 149.882 222.088 149.882 224.562C149.882 225.294 150.102 225.888 150.541 226.344C150.98 226.816 151.542 227.052 152.226 227.052C153.397 227.052 154.415 226.311 155.277 224.83C156.14 223.349 156.97 221.079 157.768 218.019ZM197.514 210.963C194.91 213.437 193.046 215.048 191.923 215.797C190.8 216.546 189.726 216.92 188.7 216.92C186.129 216.92 184.916 214.65 185.062 210.109C183.435 212.436 181.929 214.153 180.546 215.26C179.179 216.367 177.763 216.92 176.298 216.92C174.866 216.92 173.645 216.253 172.636 214.918C171.643 213.567 171.146 211.915 171.146 209.962C171.146 207.521 171.814 205.193 173.148 202.98C174.499 200.766 176.225 198.976 178.324 197.609C180.424 196.241 182.279 195.558 183.891 195.558C185.925 195.558 187.349 196.494 188.163 198.365L193.144 195.607H194.511L192.362 202.76C191.256 206.357 190.702 208.823 190.702 210.157C190.702 211.557 191.199 212.257 192.191 212.257C192.826 212.257 193.526 211.923 194.291 211.256C195.056 210.572 196.13 209.539 197.514 208.155V210.963ZM179.643 212.306C181.27 212.306 182.8 210.922 184.232 208.155C185.681 205.372 186.405 202.809 186.405 200.465C186.405 199.554 186.202 198.846 185.795 198.341C185.388 197.82 184.843 197.56 184.159 197.56C182.532 197.56 180.985 198.943 179.521 201.71C178.072 204.477 177.348 207.024 177.348 209.352C177.348 210.231 177.559 210.947 177.982 211.5C178.422 212.037 178.975 212.306 179.643 212.306ZM205.033 196.656C206.156 196.363 207.287 196.127 208.427 195.948C209.566 195.753 210.25 195.655 210.478 195.655C210.64 195.655 210.722 195.721 210.722 195.851C210.722 196.095 210.657 196.347 210.526 196.608C210.266 197.356 210.136 198.072 210.136 198.756C210.136 199.602 210.624 200.758 211.601 202.223C212.577 203.688 213.065 205.047 213.065 206.3C213.065 208.79 211.869 211.191 209.477 213.502C207.1 215.813 204.634 216.969 202.079 216.969C200.972 216.969 199.963 216.676 199.052 216.09C198.14 215.504 197.685 214.877 197.685 214.21C197.685 213.82 198.132 213.079 199.027 211.988C199.939 210.898 200.59 210.353 200.98 210.353C201.501 210.353 201.965 211.02 202.372 212.355C202.779 213.689 203.479 214.357 204.472 214.357C205.465 214.357 206.392 213.901 207.255 212.989C208.134 212.062 208.573 211.069 208.573 210.011C208.573 208.986 208.02 207.618 206.913 205.909C205.806 204.2 205.074 202.768 204.716 201.612C202.828 204.656 200.435 207.773 197.538 210.963H196.977V208.766C200.964 204.518 203.65 200.481 205.033 196.656ZM264.188 210.963C260.445 214.967 257.011 216.969 253.886 216.969C252.16 216.969 250.793 216.359 249.784 215.138C248.775 213.917 248.214 212.176 248.1 209.913C246.13 212.306 244.381 214.08 242.851 215.236C241.337 216.391 239.717 216.969 237.992 216.969C235.779 216.969 233.996 216.017 232.646 214.112C231.311 212.192 230.644 209.637 230.644 206.446C230.644 202.638 231.522 198.715 233.28 194.679C235.038 190.626 237.642 187.428 241.093 185.084C244.543 182.74 248.726 181.569 253.642 181.569C257.32 181.569 260.648 182.065 263.627 183.058V184.669C261.202 187.501 259.167 191.464 257.523 196.559C255.896 201.653 255.082 205.535 255.082 208.204C255.082 209.506 255.342 210.515 255.863 211.232C256.4 211.948 257.141 212.306 258.085 212.306C259.778 212.306 261.812 210.922 264.188 208.155V210.963ZM257.084 184.669C255.587 183.855 253.975 183.448 252.25 183.448C249.532 183.448 247.082 184.588 244.901 186.866C242.72 189.129 240.995 192.132 239.726 195.875C238.472 199.619 237.846 202.866 237.846 205.616C237.846 207.456 238.196 208.953 238.896 210.109C239.612 211.248 240.523 211.818 241.63 211.818C243.55 211.818 245.756 210.068 248.246 206.569C249.271 197.389 252.217 190.089 257.084 184.669ZM290.238 210.963C287.895 213.291 286.104 214.869 284.867 215.699C283.646 216.513 282.564 216.92 281.62 216.92C280.465 216.92 279.545 216.359 278.861 215.236C278.194 214.112 277.852 212.469 277.836 210.304C276.501 212.469 275.045 214.112 273.466 215.236C271.903 216.359 270.487 216.92 269.218 216.92C267.834 216.92 266.614 216.269 265.556 214.967C264.498 213.649 263.969 212.111 263.969 210.353C263.969 206.723 265.287 203.362 267.924 200.27C270.577 197.161 273.425 195.607 276.469 195.607C277.315 195.607 277.974 195.729 278.446 195.973C278.935 196.217 279.464 196.632 280.033 197.218L283.524 182.618C286.373 181.951 288.293 181.617 289.286 181.617C289.612 181.617 289.774 181.748 289.774 182.008C289.774 182.187 289.368 183.872 288.554 187.062C285.299 199.822 283.671 207.521 283.671 210.157C283.671 210.776 283.801 211.272 284.062 211.647C284.322 212.021 284.664 212.208 285.087 212.208C286.129 212.208 287.846 210.857 290.238 208.155V210.963ZM272.587 212.257C274.182 212.257 275.671 210.906 277.055 208.204C278.438 205.502 279.13 202.972 279.13 200.612C279.13 199.651 278.91 198.886 278.471 198.317C278.048 197.747 277.486 197.462 276.786 197.462C275.272 197.462 273.808 198.878 272.392 201.71C270.976 204.526 270.268 207.073 270.268 209.352C270.268 210.247 270.471 210.955 270.878 211.476C271.301 211.997 271.871 212.257 272.587 212.257ZM312.162 210.963C311.413 211.614 310.657 212.078 309.892 212.355C309.127 212.631 308.533 212.77 308.109 212.77C306.921 212.77 305.749 212.314 304.594 211.403C301.697 215.081 298.629 216.92 295.39 216.92C293.697 216.92 292.37 216.342 291.41 215.187C290.466 214.015 289.994 212.387 289.994 210.304C289.994 208.009 290.564 205.193 291.703 201.857L293.412 196.852L300.053 195.607L297.099 204.42C296.789 205.38 296.496 206.52 296.22 207.838C295.943 209.156 295.805 210.1 295.805 210.67C295.805 211.549 296.033 212.29 296.488 212.892C296.96 213.478 297.53 213.771 298.197 213.771C299.76 213.771 301.444 212.436 303.251 209.767C302.421 208.107 302.006 206.438 302.006 204.762C302.006 202.434 302.616 200.335 303.837 198.463C305.074 196.591 306.425 195.655 307.89 195.655C308.996 195.655 309.55 196.51 309.55 198.219C309.55 201.523 308.215 205.34 305.546 209.669C306.376 210.434 307.247 210.817 308.158 210.817C309.265 210.817 310.6 209.93 312.162 208.155V210.963ZM334.086 210.963C333.256 211.695 332.45 212.216 331.669 212.526C330.888 212.819 330.269 212.965 329.813 212.965C328.642 212.965 327.478 212.509 326.322 211.598C323.979 215.146 321.293 216.92 318.266 216.92C316.378 216.92 314.848 216.212 313.676 214.796C312.504 213.38 311.918 211.5 311.918 209.156C311.918 205.445 313.236 202.264 315.873 199.611C318.51 196.941 321.659 195.607 325.321 195.607C326.705 195.607 327.714 195.761 328.349 196.07C329 196.363 329.398 196.713 329.545 197.12C329.691 197.527 329.765 198.04 329.765 198.658C329.765 201.702 328.935 205.437 327.274 209.864C328.104 210.629 328.975 211.012 329.887 211.012C330.977 211.012 332.377 210.06 334.086 208.155V210.963ZM326.029 197.316C325.785 197.218 325.435 197.169 324.979 197.169C322.864 197.169 321.203 198.276 319.999 200.489C318.811 202.703 318.217 205.291 318.217 208.253C318.217 209.897 318.477 211.175 318.998 212.086C319.519 212.998 320.243 213.453 321.171 213.453C322.326 213.453 323.58 212.387 324.931 210.255C323.401 208.334 322.636 206.267 322.636 204.054C322.636 201.45 323.767 199.204 326.029 197.316ZM352.348 210.963C350.264 213.014 348.352 214.519 346.61 215.48C344.885 216.44 343.078 216.92 341.19 216.92C339.075 216.92 337.325 216.237 335.941 214.869C334.574 213.486 333.891 211.736 333.891 209.62C333.891 206.154 335.152 202.955 337.675 200.026C340.214 197.08 342.956 195.607 345.902 195.607C347.351 195.607 348.531 196.014 349.442 196.827C350.354 197.625 350.81 198.667 350.81 199.952C350.81 200.408 350.72 200.75 350.541 200.978C350.378 201.206 350.061 201.433 349.589 201.661L346.757 203.004C346.415 203.167 346.163 203.248 346 203.248C345.772 203.248 345.658 203.085 345.658 202.76C345.658 202.63 345.707 202.207 345.805 201.49C345.902 200.758 345.951 200.31 345.951 200.148C345.951 199.431 345.797 198.854 345.487 198.414C345.194 197.975 344.796 197.755 344.291 197.755C343.103 197.755 342.012 198.634 341.02 200.392C340.043 202.15 339.555 204.152 339.555 206.398C339.555 208.334 340.019 209.881 340.946 211.036C341.874 212.192 343.111 212.77 344.657 212.77C345.976 212.77 347.213 212.395 348.368 211.647C349.54 210.882 350.867 209.718 352.348 208.155V210.963ZM378.422 210.963C375.818 213.437 373.954 215.048 372.831 215.797C371.708 216.546 370.634 216.92 369.608 216.92C367.037 216.92 365.824 214.65 365.971 210.109C364.343 212.436 362.838 214.153 361.454 215.26C360.087 216.367 358.671 216.92 357.206 216.92C355.774 216.92 354.553 216.253 353.544 214.918C352.551 213.567 352.055 211.915 352.055 209.962C352.055 207.521 352.722 205.193 354.057 202.98C355.408 200.766 357.133 198.976 359.232 197.609C361.332 196.241 363.188 195.558 364.799 195.558C366.833 195.558 368.257 196.494 369.071 198.365L374.052 195.607H375.419L373.271 202.76C372.164 206.357 371.61 208.823 371.61 210.157C371.61 211.557 372.107 212.257 373.1 212.257C373.734 212.257 374.434 211.923 375.199 211.256C375.964 210.572 377.038 209.539 378.422 208.155V210.963ZM360.551 212.306C362.178 212.306 363.708 210.922 365.141 208.155C366.589 205.372 367.313 202.809 367.313 200.465C367.313 199.554 367.11 198.846 366.703 198.341C366.296 197.82 365.751 197.56 365.067 197.56C363.44 197.56 361.894 198.943 360.429 201.71C358.98 204.477 358.256 207.024 358.256 209.352C358.256 210.231 358.467 210.947 358.891 211.5C359.33 212.037 359.883 212.306 360.551 212.306ZM396.684 210.963C394.6 213.014 392.688 214.519 390.946 215.48C389.221 216.44 387.414 216.92 385.526 216.92C383.41 216.92 381.661 216.237 380.277 214.869C378.91 213.486 378.227 211.736 378.227 209.62C378.227 206.154 379.488 202.955 382.011 200.026C384.55 197.08 387.292 195.607 390.238 195.607C391.687 195.607 392.867 196.014 393.778 196.827C394.69 197.625 395.146 198.667 395.146 199.952C395.146 200.408 395.056 200.75 394.877 200.978C394.714 201.206 394.397 201.433 393.925 201.661L391.093 203.004C390.751 203.167 390.499 203.248 390.336 203.248C390.108 203.248 389.994 203.085 389.994 202.76C389.994 202.63 390.043 202.207 390.141 201.49C390.238 200.758 390.287 200.31 390.287 200.148C390.287 199.431 390.132 198.854 389.823 198.414C389.53 197.975 389.132 197.755 388.627 197.755C387.439 197.755 386.348 198.634 385.355 200.392C384.379 202.15 383.891 204.152 383.891 206.398C383.891 208.334 384.354 209.881 385.282 211.036C386.21 212.192 387.447 212.77 388.993 212.77C390.312 212.77 391.549 212.395 392.704 211.647C393.876 210.882 395.202 209.718 396.684 208.155V210.963ZM408.207 186.11C408.207 190.016 406.767 191.969 403.886 191.969C402.486 191.969 401.29 191.546 400.297 190.699C401.241 189.267 401.973 187.656 402.494 185.865C403.78 186.663 404.813 187.062 405.595 187.062C406.474 187.062 407.344 186.744 408.207 186.11ZM408.695 210.963C404.887 214.967 402.038 216.969 400.15 216.969C399.109 216.969 398.23 216.44 397.514 215.382C396.798 214.308 396.439 212.965 396.439 211.354C396.439 207.887 397.611 203.085 399.955 196.949L406.156 195.655H406.449L404.008 203.297C402.999 206.455 402.494 208.709 402.494 210.06C402.494 210.597 402.608 211.036 402.836 211.378C403.08 211.704 403.381 211.866 403.739 211.866C404.374 211.866 405.009 211.639 405.644 211.183C406.295 210.711 407.312 209.702 408.695 208.155V210.963ZM434.77 210.963C432.165 213.437 430.302 215.048 429.179 215.797C428.056 216.546 426.981 216.92 425.956 216.92C423.384 216.92 422.172 214.65 422.318 210.109C420.691 212.436 419.185 214.153 417.802 215.26C416.435 216.367 415.019 216.92 413.554 216.92C412.121 216.92 410.901 216.253 409.892 214.918C408.899 213.567 408.402 211.915 408.402 209.962C408.402 207.521 409.07 205.193 410.404 202.98C411.755 200.766 413.48 198.976 415.58 197.609C417.68 196.241 419.535 195.558 421.146 195.558C423.181 195.558 424.605 196.494 425.419 198.365L430.399 195.607H431.767L429.618 202.76C428.511 206.357 427.958 208.823 427.958 210.157C427.958 211.557 428.454 212.257 429.447 212.257C430.082 212.257 430.782 211.923 431.547 211.256C432.312 210.572 433.386 209.539 434.77 208.155V210.963ZM416.898 212.306C418.526 212.306 420.056 210.922 421.488 208.155C422.937 205.372 423.661 202.809 423.661 200.465C423.661 199.554 423.458 198.846 423.051 198.341C422.644 197.82 422.099 197.56 421.415 197.56C419.787 197.56 418.241 198.943 416.776 201.71C415.328 204.477 414.604 207.024 414.604 209.352C414.604 210.231 414.815 210.947 415.238 211.5C415.678 212.037 416.231 212.306 416.898 212.306Z" fill="white"/>
</svg>
